#!OML:ASF F:\VICON\USERDATA\INSTALL\rory3\rory3.ASF
:FULLY-SPECIFIED
:DEGREES
126
root 1.315858925308199 17.82523022120985 53.16762219195622 -4.872398627031197 2.3863453291704975 -1.4051132707073417
lfemur -11.78430295697875 -3.1909483198383866 -22.046148269710674
ltibia 24.95294613697639
lfoot -9.361362078085524 -0.7374517158372385
ltoes -17.986748153128147
rfemur -14.790807651583554 -1.8380663932849592 22.5891121449149
rtibia 55.664485832235115
rfoot -4.1993577353725975 -9.308728233431435
rtoes 7.936138784457896
lowerback 10.434328663397899 0.3574153802857519 0.3135506334096617
upperback -0.1934465045415808 0.7336120992846562 1.1667353254490065
thorax -5.922474976612882 0.40326733922769786 0.11485744507100804
lowerneck -16.282844133065517 -3.965667702203021 -1.6997054225695658
upperneck 21.467758258512056 -5.673186829739404 2.1167055000949104
head 9.672802243912201 -2.487012789827969 0.24579279809679855
lclavicle -2.5059196864469846e-15 -2.7440534647445553e-15
lhumerus -27.640037255095844 0.1389315171593064 81.3922371371819
lradius 27.502444122937966
lwrist 8.231987324792584
lhand -29.28298405157631 18.82242195427417
lfingers nan
lthumb -2.6554113508618213 49.000709868744444
rclavicle -2.4995245709055023e-15 -2.738448483121314e-15
rhumerus -31.636404174880024 -20.62225966134583 -77.54844396232308
rradius 32.511560086228
rwrist 2.0943728762349085
rhand -17.750368423013924 21.76925341321841
rfingers nan
rthumb 8.364644264582179 -7.88313085966488
127
root 1.3520289488901094 17.840215221924442 54.384549959743666 -4.545590973631255 2.720804146562685 -1.3523748845342092
lfemur -9.081494310193552 -3.5506465771299034 -22.632736284465132
ltibia 22.922363834215126
lfoot -8.823850949415693 -1.8347560165735546
ltoes -17.732422934793895
rfemur -18.42845784502068 -2.3876338442150127 22.262086477561894
rtibia 58.86837670835186
rfoot -4.42119601728502 -7.901614001199748
rtoes 7.6364466119560905
lowerback 10.325035419660043 0.13445614758237107 0.31412275273036205
upperback -0.22376539941242835 0.43943511390996104 1.1951569706186251
thorax -5.986726580468055 0.2647793236948542 0.3676300485272217
lowerneck -16.382120434924026 -3.9475950596895295 -1.6834174754740192
upperneck 21.364827866656334 -5.640474414220743 2.2476306524378895
head 9.655972587277352 -2.4653020178566423 0.29654160778304484
lclavicle -2.5052618988104037e-15 -2.742352433909107e-15
lhumerus -27.439975171587268 -0.028301146464349447 81.29132734950943
lradius 27.35542117719461
lwrist 8.215610353760214
lhand -29.24863837242572 19.07289905348866
lfingers nan
lthumb -2.6279699427769954 49.24699499797583
rclavicle -2.498250015782067e-15 -2.7367089207900206e-15
rhumerus -31.81451793358581 -20.873720096312766 -77.60596268598165
rradius 32.456342621025144
rwrist 2.0722371550855394
rhand -17.749260898307824 21.755291143284666
rfingers nan
rthumb 8.348877271566446 -7.920002119589665
128
root 1.3653306646101004 17.853405737701763 54.95117797602075 -4.288574602429465 2.64961819718975 -0.681977854433192
lfemur -6.11877271265497 -3.8347538401486294 -23.715682340915933
ltibia 21.571253585203365
lfoot -8.908392650283725 -3.212150012758776
ltoes -16.488284836656202
rfemur -21.925993261883463 -2.5086699792690688 21.53547291068734
rtibia 60.5827188824668
rfoot -4.5019883181211195 -6.404269150339099
rtoes 7.019294517763251
lowerback 10.269078877787647 -0.13317070475807738 -0.3511870140671234
upperback -0.256871914269837 -0.06673997631296763 1.154087597564452
thorax -6.067762677149778 0.01662019790927055 0.8198620642629258
lowerneck -16.498172384739643 -3.9152030173397234 -1.64637392593563
upperneck 21.278948477933735 -5.581331473665776 2.3227457801369007
head 9.64880326544102 -2.436728888224536 0.3311027706857597
lclavicle -2.5040688958185713e-15 -2.7405839983627655e-15
lhumerus -27.324497620879463 -0.07726016574290595 81.24238576510822
lradius 27.07441032149405
lwrist 8.379888810782534
lhand -29.186209447558245 19.30056859080935
lfingers nan
lthumb -2.574247034213757 49.45640362425547
rclavicle -2.497642465200141e-15 -2.7355398047324672e-15
rhumerus -31.971786651211808 -21.13299531064679 -77.64155414816699
rradius 32.44054515088339
rwrist 2.0476736448262645
rhand -17.711139504305326 21.804442696841672
rfingers nan
rthumb 8.358940838894815 -7.906275125247333
129
root 1.3975846796233213 17.894985773920226 55.767145314802775 -3.6507522762682396 2.6066242317284916 -1.065789006826271
lfemur -3.374662341941554 -3.9983669004375733 -23.670317374175326
ltibia 20.931430097850026
lfoot -8.042971047775008 -3.249862113997388
ltoes -15.753383077530193
rfemur -24.413864170703498 -2.2320987834863777 22.212788795385258
rtibia 60.137027694390866
rfoot -4.49943159055068 -5.043317762395701
rtoes 6.204120494559933
lowerback 10.174988206167107 -0.4340565238020807 -0.10309028278218202
upperback -0.3243841903040835 -0.4394486581116251 1.2679705247118953
thorax -6.138116742610766 -0.18284142508862658 1.218055548268693
lowerneck -16.62274783984278 -3.869679623212943 -1.6021379663857822
upperneck 21.21968630714566 -5.49660501994735 2.3456851831443473
head 9.652423296877808 -2.401465314707686 0.35229928568739527
lclavicle -2.5022523765328273e-15 -2.7377469983136344e-15
lhumerus -27.307295452721874 -0.05454354559621821 81.2395145650251
lradius 26.678918802648848
lwrist 8.538106978866411
lhand -29.141275753685616 19.33819051716967
lfingers nan
lthumb -2.5007104420869184 49.54616606207101
rclavicle -2.4962946903874034e-15 -2.7334270168907987e-15
rhumerus -32.11155137069114 -21.355565314694758 -77.63147610233696
rradius 32.465912508514336
rwrist 2.0252104935295776
rhand -17.7257475982272 21.762513503682538
rfingers nan
rthumb 8.343091534432517 -7.932202247386333
